<?xml version="1.0" standalone="no"?>
<!DOCTYPE svg PUBLIC "-//W3C//DTD SVG 20010904//EN"
 "http://www.w3.org/TR/2001/REC-SVG-20010904/DTD/svg10.dtd">
<svg version="1.0" xmlns="http://www.w3.org/2000/svg"
 width="360.000000pt" height="360.000000pt" viewBox="0 0 360.000000 360.000000"
 preserveAspectRatio="xMidYMid meet">
<metadata>
Created by potrace 1.14, written by Peter Selinger 2001-2017
</metadata>
<g transform="translate(0.000000,360.000000) scale(0.100000,-0.100000)"
fill="#000000" stroke="none">
<path d="M1760 3583 c0 -4 43 -120 94 -258 l94 -250 -30 -15 c-19 -9 -33 -11
-35 -5 -2 6 -73 125 -156 265 l-153 255 -38 -2 c-21 -1 -40 -4 -42 -6 -3 -2
49 -95 116 -207 66 -111 120 -204 120 -205 0 -2 20 -36 45 -76 l45 -73 -28
-18 c-32 -21 -2 -50 -243 232 -268 313 -248 295 -292 281 -20 -7 -37 -15 -37
-18 0 -2 42 -53 93 -111 154 -178 216 -250 278 -323 26 -30 61 -70 78 -89 17
-19 31 -38 31 -41 0 -4 -11 -14 -25 -23 l-25 -17 -301 246 c-165 135 -306 248
-314 251 -14 6 -65 -23 -65 -36 0 -4 142 -123 315 -264 l315 -257 -16 -25 c-9
-13 -20 -24 -25 -24 -5 0 -43 20 -85 45 -41 25 -77 45 -78 45 -2 0 -135 74
-296 165 -161 91 -297 165 -302 165 -9 0 -60 -51 -56 -55 2 -2 163 -93 358
-202 466 -263 421 -233 404 -265 -8 -15 -20 -25 -27 -23 -6 2 -75 26 -152 53
-279 99 -680 240 -700 246 -15 4 -24 -2 -38 -26 -10 -17 -16 -32 -14 -34 2 -2
93 -36 203 -75 109 -39 253 -90 319 -114 66 -24 175 -62 241 -85 l121 -43 -10
-32 -9 -32 -103 18 c-57 10 -120 20 -142 23 -21 4 -60 11 -88 16 -56 11 -84
16 -170 30 -33 5 -72 12 -88 15 -81 14 -188 32 -242 40 -22 4 -57 10 -78 15
-38 8 -39 7 -53 -27 -9 -19 -13 -37 -11 -39 4 -4 220 -43 327 -59 20 -3 47 -7
60 -10 50 -10 136 -25 175 -31 22 -3 58 -9 80 -14 22 -5 63 -12 90 -16 28 -3
57 -7 65 -9 8 -1 48 -8 88 -15 l73 -13 -4 -31 -3 -31 -492 -3 -492 -2 0 -40 0
-40 490 0 490 0 0 -35 c0 -19 -3 -35 -7 -35 -5 0 -57 -9 -118 -19 -60 -11
-128 -22 -150 -25 -22 -4 -53 -9 -70 -12 -31 -5 -38 -7 -95 -17 -19 -4 -48 -9
-65 -12 -16 -3 -130 -22 -252 -42 l-223 -37 0 -42 0 -41 68 13 c37 7 85 15
107 18 44 7 386 66 560 97 162 28 255 42 260 38 2 -2 5 -17 7 -33 l3 -29 -375
-133 c-206 -73 -429 -152 -495 -175 -66 -23 -124 -45 -128 -49 -10 -9 -13 -68
-4 -76 3 -4 19 -2 34 4 135 49 993 352 997 352 6 0 29 -60 25 -64 -2 -2 -239
-135 -527 -297 -288 -161 -527 -300 -531 -309 -4 -8 -5 -29 -2 -46 l6 -32 230
130 c217 123 696 390 815 456 l54 30 18 -29 18 -30 -32 -27 c-17 -15 -120 -98
-227 -186 -219 -177 -228 -184 -396 -323 -66 -54 -202 -165 -303 -247 l-182
-148 0 -44 c0 -24 5 -44 10 -44 6 0 130 98 276 217 147 120 395 323 553 452
157 128 301 246 319 262 l34 28 24 -26 c28 -30 27 -28 12 -45 -7 -7 -38 -42
-68 -78 -30 -36 -57 -67 -60 -70 -3 -3 -45 -52 -94 -110 -50 -58 -108 -125
-130 -150 -23 -25 -52 -59 -66 -75 -20 -23 -461 -538 -539 -628 -15 -18 -14
-21 14 -44 l29 -25 25 29 c15 16 49 55 76 87 28 33 55 64 60 70 6 6 50 58 100
116 49 58 92 107 95 110 3 3 46 52 95 110 50 58 102 118 116 135 31 35 153
177 220 256 104 121 126 146 165 188 l41 44 26 -19 c15 -10 24 -25 22 -33 -3
-7 -175 -299 -382 -648 -297 -502 -373 -637 -362 -644 36 -24 52 -30 59 -22 4
4 177 295 384 645 l378 637 33 -16 34 -16 -28 -76 c-16 -42 -78 -209 -139
-371 -299 -798 -352 -942 -352 -951 0 -5 8 -9 18 -9 10 0 23 -5 30 -12 8 -8
15 -8 21 -3 5 6 122 313 261 684 138 371 255 683 261 692 7 15 14 16 44 6 25
-7 34 -15 30 -26 -2 -9 -7 -29 -10 -46 -3 -16 -7 -42 -10 -58 -3 -15 -9 -54
-15 -87 -6 -33 -12 -70 -14 -82 -19 -98 -26 -137 -31 -165 -7 -43 -14 -82 -20
-113 -4 -21 -85 -465 -100 -555 -3 -16 -13 -68 -21 -115 -9 -47 -17 -92 -19
-100 -5 -29 -15 -85 -20 -108 -4 -21 -1 -23 37 -20 l42 3 48 264 c26 146 49
276 52 290 3 22 22 125 41 226 3 17 13 68 21 115 8 47 18 99 21 115 3 17 22
122 42 235 20 113 40 204 44 203 4 -2 22 -3 40 -3 l32 0 -1 -725 -1 -725 38 0
c30 0 39 4 40 18 0 9 0 335 0 724 l0 708 24 0 c13 0 30 3 38 6 15 5 22 -24 61
-249 2 -12 11 -60 20 -107 8 -47 17 -96 20 -110 2 -14 11 -63 20 -110 8 -47
18 -101 21 -120 6 -34 33 -185 41 -225 2 -11 13 -69 23 -130 11 -60 31 -173
45 -250 14 -77 26 -143 26 -147 0 -5 18 -8 40 -8 25 0 40 5 40 13 0 9 -28 169
-65 367 -3 14 -7 39 -10 55 -43 237 -68 374 -71 390 -3 16 -25 138 -59 330 -9
48 -34 185 -47 248 -11 61 -9 69 22 74 11 1 24 4 30 5 7 2 94 -217 201 -502
222 -593 213 -569 274 -735 26 -72 53 -135 59 -142 8 -9 19 -8 43 2 29 12 32
17 24 38 -5 13 -123 327 -261 696 -237 634 -251 673 -233 686 43 32 42 34 273
-356 123 -208 227 -374 230 -369 3 4 4 37 3 72 -2 63 -3 65 -188 378 -103 173
-191 320 -196 327 -7 7 0 18 21 33 38 27 14 46 191 -160 179 -209 169 -199
170 -175 5 87 -4 111 -67 180 -64 69 -194 224 -194 231 0 4 10 18 21 30 l22
23 104 -86 c105 -86 123 -92 117 -40 -1 12 -3 29 -3 37 -1 8 -37 44 -81 79
-44 35 -80 68 -80 73 0 5 7 20 16 33 l16 25 63 -35 c67 -38 73 -36 67 21 -3
27 -12 38 -36 51 -54 27 -57 32 -40 65 12 23 19 28 37 22 38 -11 40 -10 40 19
-2 52 -3 57 -18 57 -20 0 -20 44 0 64 16 16 18 34 11 108 -3 26 -1 50 4 53 4
2 2 34 -5 70 -6 36 -8 68 -4 71 11 7 -1 67 -16 79 -19 16 -29 56 -15 65 7 5 9
20 5 44 -6 31 -11 35 -30 32 -17 -3 -26 2 -34 22 -11 22 -10 28 7 41 16 13 18
22 10 49 -9 34 -18 38 -49 21 -16 -8 -25 -7 -40 7 -25 23 -24 30 11 62 l30 27
-21 32 -21 33 -39 -32 c-38 -30 -39 -31 -59 -13 -27 25 -26 33 16 76 l37 37
-23 38 -23 37 -19 -24 c-72 -88 -76 -91 -103 -73 -14 9 -25 18 -25 21 0 2 18
35 40 72 22 37 40 70 40 74 0 9 -50 61 -54 56 -2 -2 -25 -39 -51 -81 -48 -80
-58 -88 -89 -65 -16 12 -15 18 18 107 20 52 36 102 35 110 0 8 -13 25 -28 37
l-28 22 -33 -87 c-62 -163 -58 -155 -82 -148 -13 3 -27 6 -31 6 -4 0 -5 18 -2
41 7 46 31 180 40 224 6 27 3 32 -29 49 -20 11 -38 17 -39 15 -2 -2 -16 -71
-30 -153 -15 -83 -30 -153 -34 -157 -5 -4 -20 -5 -35 -2 l-27 5 0 180 c1 100
-3 184 -8 189 -6 6 -23 11 -39 12 l-29 2 -1 -188 c-1 -199 -3 -210 -47 -201
-26 5 -24 1 -32 59 -3 27 -14 92 -25 145 -10 52 -24 128 -31 168 -9 53 -16 72
-28 73 -9 0 -28 3 -42 5 l-27 4 13 -62 c8 -35 16 -83 20 -108 9 -60 42 -238
50 -272 6 -23 3 -27 -25 -33 -17 -4 -33 -5 -35 -3 -2 1 -43 111 -93 243 l-90
240 -41 3 c-22 2 -41 0 -41 -5z m474 -656 c1 -64 -2 -117 -5 -117 -3 0 -12 35
-19 78 -16 93 -17 99 -24 135 -5 26 -3 28 21 25 l26 -3 1 -118z m126 107 c0
-30 -33 -189 -42 -199 -4 -5 -8 41 -8 103 l0 112 25 0 c16 0 25 -6 25 -16z
m-234 -129 c12 -66 21 -121 19 -123 -6 -7 -86 229 -80 238 4 6 14 10 23 8 13
-3 22 -31 38 -123z m358 116 c4 -5 -10 -51 -29 -103 -20 -51 -38 -99 -40 -107
-3 -8 -8 -12 -10 -9 -2 2 5 55 16 116 18 94 24 112 40 112 10 0 20 -4 23 -9z
m-459 -151 c24 -63 43 -115 41 -117 -1 -1 -32 48 -68 110 -46 77 -63 114 -55
119 26 17 41 -2 82 -112z m580 110 c6 -9 -110 -220 -121 -220 -2 0 10 37 27
83 17 45 36 97 42 115 10 32 39 44 52 22z m-701 -116 c25 -42 46 -79 46 -83 0
-3 9 -17 20 -31 11 -14 20 -29 20 -33 0 -4 -30 27 -67 70 -37 43 -70 80 -73
83 -29 28 -33 41 -14 55 10 8 20 15 21 15 1 0 22 -34 47 -76z m815 52 c7 -8 8
-16 4 -18 -4 -1 -44 -45 -87 -95 -44 -51 -81 -93 -83 -93 -2 0 7 17 20 38 13
20 43 70 66 110 42 72 58 84 80 58z m-873 -161 c90 -106 94 -114 29 -60 -33
28 -62 52 -65 55 -3 3 -24 21 -48 39 -41 32 -42 34 -26 53 20 22 11 29 110
-87z m982 70 c-5 -4 -182 -147 -203 -164 -22 -17 -12 -6 100 122 65 74 69 77
87 61 10 -10 17 -18 16 -19z m-511 -27 c-3 -8 -6 -5 -6 6 -1 11 2 17 5 13 3
-3 4 -12 1 -19z m-564 -104 c45 -37 89 -74 97 -82 19 -18 3 -10 -122 60 -81
45 -99 64 -81 81 13 13 24 6 106 -59z m1145 54 c20 -20 15 -24 -55 -63 -38
-21 -88 -48 -113 -62 l-45 -25 31 28 c54 51 155 133 165 134 3 0 10 -5 17 -12z
m-1080 -223 c4 -4 -2 -3 -13 2 -11 5 -68 27 -127 47 -104 37 -121 49 -97 73 7
7 43 -8 120 -52 60 -34 113 -66 117 -70z m1162 94 c0 -5 -194 -77 -260 -96 -8
-3 21 15 66 40 44 25 101 57 125 71 40 23 45 23 57 8 6 -8 12 -19 12 -23z
m-1349 -115 c52 -19 103 -37 113 -39 11 -3 24 -9 29 -14 6 -6 3 -8 -9 -6 -26
6 -172 33 -208 39 -16 3 -31 7 -33 10 -5 4 6 46 11 46 2 0 46 -16 97 -36z
m1392 14 c7 -26 6 -28 -24 -33 -13 -2 -51 -9 -84 -15 -33 -5 -73 -13 -90 -15
-16 -3 -36 -8 -42 -10 -7 -2 -13 -1 -13 3 0 6 219 89 241 91 4 1 9 -9 12 -21z
m-1413 -124 c45 -8 98 -17 118 -20 74 -9 41 -14 -97 -14 -126 0 -142 2 -137
16 3 9 6 20 6 25 0 12 15 11 110 -7z m1440 -9 l0 -25 -137 1 -138 1 75 14 c41
8 91 18 110 22 75 17 90 15 90 -13z m-1365 -126 c-55 -10 -121 -21 -147 -24
-46 -6 -48 -5 -48 20 l0 25 148 -1 147 -1 -100 -19z m1367 15 c3 -3 3 -14 0
-26 -6 -23 4 -23 -212 16 l-75 14 141 1 c77 1 143 -2 146 -5z m-1276 -86 c-19
-11 -201 -75 -242 -85 -17 -4 -22 1 -26 21 -5 23 -1 26 31 31 112 18 118 19
196 35 56 11 63 11 41 -2z m1167 -23 c82 -14 97 -20 97 -35 0 -11 -5 -22 -10
-25 -11 -7 -237 70 -254 85 -4 5 9 5 30 0 22 -4 83 -15 137 -25z m-83 -94
c131 -47 150 -60 131 -90 -7 -11 -34 0 -138 59 -126 72 -140 80 -132 80 2 0
65 -22 139 -49z m-1170 -32 c-114 -64 -126 -68 -137 -53 -7 10 -13 21 -13 25
0 4 51 25 113 47 61 21 119 42 127 45 48 18 21 -1 -90 -64z m170 -3 c-8 -8
-62 -53 -120 -100 l-105 -86 -17 22 c-12 17 -14 25 -5 30 62 37 253 146 257
147 2 1 -2 -5 -10 -13z m960 -68 c58 -33 109 -63 114 -68 4 -5 2 -18 -6 -29
l-15 -21 -29 22 c-16 12 -31 25 -34 28 -3 3 -39 33 -80 66 -109 87 -110 87
-80 73 14 -7 72 -39 130 -71z m-897 10 c-4 -7 -21 -28 -38 -47 -53 -60 -69
-78 -114 -131 l-44 -51 -21 21 -21 21 35 27 c19 15 73 59 120 99 91 76 95 80
83 61z m830 -102 l109 -89 -21 -20 -20 -21 -33 39 c-18 22 -64 75 -103 120
-78 90 -79 91 68 -29z m-772 32 c-21 -39 -142 -242 -146 -246 -1 -1 -13 6 -25
16 l-23 19 104 121 c57 67 105 122 106 122 2 0 -6 -15 -16 -32z m693 -113 l85
-100 -22 -17 c-12 -9 -25 -14 -29 -10 -18 19 -157 264 -139 247 11 -11 58 -65
105 -120z m-660 -51 c-30 -80 -54 -147 -54 -149 0 -3 -11 1 -25 7 -14 6 -25
15 -25 20 0 8 151 268 156 268 1 0 -22 -66 -52 -146z m624 -127 c-1 -1 -13 -8
-26 -15 -26 -14 -16 -32 -88 161 -24 65 -44 121 -44 125 0 3 36 -56 81 -131
44 -76 79 -139 77 -140z m-497 196 c-6 -26 -13 -61 -15 -76 -32 -194 -34 -199
-74 -178 -20 10 -19 12 7 78 15 38 41 105 56 150 32 90 43 101 26 26z m199
-83 c11 -63 23 -134 27 -157 5 -42 5 -43 -25 -43 l-31 0 0 161 c0 89 2 160 4
158 2 -2 13 -56 25 -119z m101 25 c17 -40 69 -188 67 -191 -2 -1 -14 -5 -28
-9 l-26 -6 -27 143 c-31 163 -32 179 -11 123 9 -22 20 -49 25 -60z m-208 -75
c-1 -78 -3 -144 -6 -147 -11 -10 -59 8 -54 20 2 7 15 72 27 144 13 73 26 131
28 128 3 -2 5 -68 5 -145z"/>
</g>
</svg>
