<svg width="32" height="32" fill="none" xmlns="http://www.w3.org/2000/svg"><path d="m20 13.333-5.146 5.186a.497.497 0 0 1-.707 0L12 16.356m15.224-4.068a3.602 3.602 0 0 1-.696-1.741l-.348-2.395c-.174-1.262-1.175-2.264-2.48-2.481l-2.392-.349c-.61-.087-1.218-.348-1.74-.696l-1.871-1.393a2.868 2.868 0 0 0-1.74-.566c-.61 0-1.218.174-1.74.566l-1.914 1.436a3.596 3.596 0 0 1-1.74.697l-2.35.348c-1.261.174-2.262 1.176-2.48 2.482l-.347 2.394c-.087.61-.348 1.22-.696 1.742l-1.436 1.916c-.783 1.045-.783 2.481 0 3.483l1.436 1.915c.391.523.609 1.089.696 1.742l.348 2.394c.174 1.263 1.174 2.264 2.48 2.482l2.392.348c.61.087 1.218.349 1.74.697l1.914 1.436c1.044.784 2.48.784 3.48 0l1.915-1.436a3.596 3.596 0 0 1 1.74-.697l2.392-.348c1.262-.174 2.262-1.176 2.48-2.482l.348-2.394c.087-.61.348-1.22.696-1.742l1.435-1.915c.783-1.045.783-2.482 0-3.483l-1.522-1.96Z" stroke="#131313" stroke-width="2" stroke-linecap="round"/></svg>