<svg width="32" height="32" fill="none" xmlns="http://www.w3.org/2000/svg"><path d="M22.4 29.333v-1 1Zm-12.8 0v1-1Zm-4.267-4.266h-1 1Zm0-18.134h1-1Zm.29-2.81-.89-.454.89.454ZM9.6 2.667v1-1Zm-2.811.29-.454-.89.454.89Zm0 26.086-.454.89.454-.89Zm-1.165-1.166.89-.454-.89.454Zm19.586 1.166-.454-.891.454.89Zm1.456-3.976h1-1Zm-.29 2.81-.891-.454.89.454Zm1.29-17.21a1 1 0 1 0-2 0h2Zm-9-7a1 1 0 1 0 0-2v2Zm7.773 6.772.707-.707-.707.707Zm-7.545-7.545-.707.707.707-.707Zm7.45 7.773v1-1Zm-6.344 0v-1 1Zm-1.334-1.334h1-1Zm0-6.344h-1 1Zm-8 12.011a1 1 0 0 0 0 2v-2Zm10.667 2a1 1 0 0 0 0-2v2ZM10.666 9.667a1 1 0 0 0 0 2v-2Zm2.667 2a1 1 0 1 0 0-2v2Zm-2.667 8.666a1 1 0 0 0 0 2v-2Zm10.667 2a1 1 0 1 0 0-2v2Zm1.067 6H9.6v2h12.8v-2ZM6.333 25.067V6.933h-2v18.134h2Zm0-18.134c0-.763 0-1.275.033-1.67.031-.383.087-.566.149-.686l-1.782-.908c-.23.45-.319.925-.36 1.431-.04.495-.04 1.103-.04 1.833h2ZM9.6 1.667c-.73 0-1.338-.001-1.833.04-.507.04-.982.13-1.432.36l.908 1.781c.12-.061.304-.117.687-.148.394-.033.906-.033 1.67-.033v-2Zm-3.085 2.91c.16-.314.414-.569.728-.729l-.908-1.782c-.69.352-1.25.913-1.602 1.603l1.782.908ZM9.6 28.333c-.764 0-1.276 0-1.67-.033-.383-.031-.566-.087-.687-.148l-.908 1.782c.45.229.925.318 1.432.36.495.04 1.102.04 1.833.04v-2Zm-5.267-3.266c0 .73 0 1.338.04 1.832.041.507.13.983.36 1.432l1.782-.908c-.062-.12-.118-.303-.149-.686-.032-.395-.033-.907-.033-1.67h-2Zm2.91 3.085a1.667 1.667 0 0 1-.728-.729l-1.782.908c.351.69.912 1.251 1.602 1.603l.908-1.782ZM22.4 30.333c.73 0 1.338.001 1.833-.04.506-.04.982-.13 1.431-.36l-.908-1.781c-.12.061-.303.117-.686.148-.395.032-.907.033-1.67.033v2Zm3.266-5.266c0 .763 0 1.275-.033 1.67-.03.383-.087.566-.148.686l1.782.908c.229-.45.318-.925.36-1.431.04-.495.04-1.103.04-1.833h-2Zm-.002 4.867a3.667 3.667 0 0 0 1.603-1.603l-1.782-.908c-.16.314-.415.569-.729.729l.908 1.782Zm.002-19.267v14.4h2v-14.4h-2Zm-16.066-7h9.066v-2H9.6v2Zm17.546 6.065L19.6 2.187l-1.414 1.414 7.545 7.545 1.414-1.414Zm-.802-.065H20v2h6.344v-2Zm-6.678-.334V2.99h-2v6.344h2Zm.334.334a.333.333 0 0 1-.334-.334h-2A2.333 2.333 0 0 0 20 11.667v-2Zm-.399-7.48c-.714-.714-1.935-.208-1.935.802h2c0 .772-.933 1.158-1.48.612l1.415-1.414Zm6.13 8.96c-.545-.547-.159-1.48.613-1.48v2c1.01 0 1.516-1.221.802-1.935l-1.414 1.414ZM10.667 17h10.667v-2H10.666v2Zm0-5.333h2.667v-2h-2.667v2Zm0 10.666h10.667v-2H10.666v2Z" fill="#131313"/></svg>