<svg width="32" height="32" fill="none" xmlns="http://www.w3.org/2000/svg"><path d="M26.667 13.333V9.6c0-1.493 0-2.24-.29-2.81a2.667 2.667 0 0 0-1.166-1.166c-.57-.29-1.317-.29-2.81-.29H6.933c-1.494 0-2.24 0-2.811.29-.502.256-.91.664-1.165 1.165-.291.57-.291 1.318-.291 2.811v12.8c0 1.494 0 2.24.29 2.81.256.502.664.91 1.166 1.166.57.29 1.317.29 2.81.29H22.4c1.494 0 2.24 0 2.811-.29.502-.256.91-.664 1.165-1.165.291-.57.291-1.317.291-2.811v-3.067m-5.867-.666h6.4c.747 0 1.12 0 1.406-.146.25-.127.454-.331.582-.582.146-.285.146-.659.146-1.406v-1.066c0-.747 0-1.12-.146-1.406a1.333 1.333 0 0 0-.582-.582c-.286-.146-.659-.146-1.406-.146h-6.4c-.746 0-1.12 0-1.405.146-.25.128-.455.332-.583.582-.145.286-.145.659-.145 1.406v1.066c0 .747 0 1.12.145 1.406.128.25.332.455.583.582.285.146.659.146 1.405.146Z" stroke="#111" stroke-width="2"/></svg>