<svg width="32" height="32" fill="none" xmlns="http://www.w3.org/2000/svg"><path d="m7.256 22.247-.39.92.39-.92Zm0-9.827.39.92-.39-.92Zm.997-.177-.19.982.19-.982Zm.854.566.83-.557-.83.557Zm-.854 9.614-.19-.982.19.982Zm.854-.566-.83-.557.83.557Zm15.637.39.39.92-.39-.92Zm0-9.827-.39.92.39-.92Zm-.997-.177.19.982-.19-.982Zm-.854.566-.83-.557.83.557Zm.854 9.614.19-.982-.19.982Zm-.854-.566.83-.557-.83.557Zm3.44.81a1 1 0 1 0-2 0h2Zm-10.333 3a1 1 0 1 0 0 2v-2Zm-8.354-4.34A4.335 4.335 0 0 1 5 17.332H3a6.335 6.335 0 0 0 3.866 5.835l.78-1.842ZM5 17.332a4.335 4.335 0 0 1 2.646-3.992l-.78-1.842A6.335 6.335 0 0 0 3 17.333h2Zm5.333 3.2v-6.4h-2v6.4h2Zm-2.687-7.192c.105-.045.172-.073.23-.095a.704.704 0 0 1 .106-.031c.006 0 .03 0 .081.01l.38-1.963c-.311-.06-.6-.065-.901 0-.26.057-.501.163-.676.237l.78 1.842Zm2.687.792c0-.577.032-1.244-.396-1.881l-1.66 1.115c.014.022.026.038.037.12.017.124.02.292.02.646h2Zm-2.27-.908c-.034-.006-.035-.011-.001.005a.856.856 0 0 1 .211.14c.028.025.023.026.004-.003l1.66-1.115a2.403 2.403 0 0 0-.66-.627 2.405 2.405 0 0 0-.834-.363l-.38 1.963Zm-1.197 9.943c.175.074.416.18.676.236.301.066.59.061.9.001l-.379-1.964a.465.465 0 0 1-.096.01.704.704 0 0 1-.091-.03 6.505 6.505 0 0 1-.23-.095l-.78 1.842Zm1.467-2.635c0 .354-.002.523-.019.647-.01.082-.023.098-.037.12l1.66 1.115c.428-.638.396-1.305.396-1.882h-2Zm.11 2.872c.32-.062.621-.222.834-.364.213-.14.478-.355.66-.626L8.277 21.3c.02-.03.024-.028-.004-.003a.867.867 0 0 1-.211.14c-.034.016-.033.011.001.004l.38 1.964Zm16.69-.237A6.335 6.335 0 0 0 29 17.333h-2a4.335 4.335 0 0 1-2.646 3.993l.78 1.842ZM29 17.333a6.335 6.335 0 0 0-3.866-5.834l-.78 1.842A4.335 4.335 0 0 1 27 17.333h2Zm-5.333 3.2v-6.4h-2v6.4h2Zm1.467-9.034c-.175-.074-.416-.18-.676-.237a2.173 2.173 0 0 0-.9 0l.379 1.963a.454.454 0 0 1 .096-.008c.011.002.037.009.091.03.058.021.125.05.23.094l.78-1.842Zm-1.467 2.634c0-.354.002-.522.019-.646.01-.082.023-.098.037-.12l-1.66-1.115c-.428.637-.396 1.304-.396 1.881h2Zm-.11-2.871c-.32.062-.621.222-.834.363a2.402 2.402 0 0 0-.66.627l1.66 1.115c-.02.029-.024.028.004.003a.866.866 0 0 1 .211-.14c.034-.016.033-.011-.001-.005l-.38-1.963Zm.797 10.064a6.52 6.52 0 0 1-.23.095.702.702 0 0 1-.106.03c-.006 0-.03 0-.081-.01l-.38 1.964c.312.06.6.065.901 0 .26-.057.501-.163.676-.237l-.78-1.842Zm-2.687-.793c0 .577-.032 1.244.396 1.882l1.66-1.115c-.014-.022-.026-.038-.037-.12-.017-.124-.02-.293-.02-.647h-2Zm2.27.908c.034.007.035.012.001-.004a.88.88 0 0 1-.211-.14c-.028-.025-.023-.026-.004.003l-1.66 1.115c.182.27.447.485.66.627.213.14.514.301.834.363l.38-1.964Zm-16.27-8.108A8.333 8.333 0 0 1 16 5V3C10.293 3 5.667 7.626 5.667 13.333h2ZM16 5a8.333 8.333 0 0 1 8.333 8.333h2C26.333 7.626 21.707 3 16 3v2Zm8.333 17.667V24h2v-1.333h-2Zm-1.666 3H16v2h6.667v-2ZM24.333 24c0 .92-.746 1.667-1.666 1.667v2A3.667 3.667 0 0 0 26.333 24h-2Z" fill="#131313"/></svg>