<svg width="166" height="48" fill="none" xmlns="http://www.w3.org/2000/svg"><path fill="#8F8F8F" d="M0 0h166v48H0z"/><g clip-path="url(#a)"><path fill="#FDFDFD" d="M-84-24h1440v7451H-84z"/><path fill="#FDFDFD" d="M-84-24h1440v96H-84z"/><g clip-path="url(#b)"><path fill-rule="evenodd" clip-rule="evenodd" d="m16.24.046.766 4.225c.148-.014.297-.027.446-.037V0h1.008c.333 0 .664.009.992.027v4.21c.15.012.298.025.445.042L20.65.132c.669.08 1.326.198 1.97.35l-.757 4.173c.14.04.278.08.416.124l1.49-3.984c.642.198 1.267.431 1.875.697L24.13 5.536c.12.061.24.125.358.19l2.214-3.73c.594.31 1.169.65 1.72 1.02L26.16 6.828c.097.075.192.152.286.23l2.907-3.37c.53.408 1.035.845 1.512 1.309l-2.973 3.447c.072.08.143.161.213.243L31.64 5.8a17.21 17.21 0 0 1 1.253 1.559l-3.595 2.933c.052.08.102.16.151.24l4.045-2.27c.35.565.669 1.152.951 1.758l-4.065 2.284.1.231 4.379-1.55c.242.618.448 1.253.616 1.903l-4.344 1.538.06.23 4.508-.774c.125.65.212 1.312.26 1.985l-4.422.758c.008.077.015.153.02.23H36l.001.181v1.819h-4.433c-.005.077-.01.154-.017.232l4.45.763v2.03l-4.737-.813-.054.244L36 23.008v2.122l-5.368-1.9-.102.261L36 26.563v2.294l-6.345-3.563c-.055.093-.11.186-.167.279L36 30.887v2.582l-7.692-6.278c-.08.093-.162.184-.245.275L36 36.668v3.062l-9.41-10.908c-.105.082-.213.162-.323.241L36 45h-2.5l-8.95-14.912c-.127.061-.256.121-.386.179L30.5 45h-2l-6.225-14.073c-.138.037-.277.07-.418.103L24.549 45h-2.032L19.88 31.339c-.141.012-.284.023-.428.031V45h-2V31.364c-.143-.01-.285-.022-.426-.037L14.653 45H12.62l2.438-14.025c-.136-.035-.271-.072-.405-.111L9.5 45H7l5.78-14.84a13.464 13.464 0 0 1-.364-.177L3.5 45H1l9.701-16.046a13.843 13.843 0 0 1-.309-.224L0 40.775v-3.061l8.879-10.292c-.085-.085-.169-.17-.252-.256L0 34.207v-2.582l7.348-5.997a14.992 14.992 0 0 1-.197-.28L0 29.366V27.07l6.133-3.444c-.05-.1-.097-.198-.145-.298L0 25.45v-2.121l5.263-1.863c-.033-.105-.064-.211-.094-.317L0 22.035v-2.03l4.779-.819a11.85 11.85 0 0 1-.034-.33H0v-1.819l.001-.181h4.733c.008-.112.016-.223.027-.334l-4.709-.807c.053-.672.147-1.333.278-1.982l4.754.816c.027-.113.055-.224.084-.335L.603 12.597c.179-.646.397-1.277.65-1.891l4.57 1.618c.048-.11.097-.22.148-.33L1.747 9.622c.298-.598.631-1.177.997-1.734l4.204 2.36c.07-.105.142-.21.216-.315L3.446 6.9c.405-.53.84-1.036 1.305-1.517l3.686 3.009c.092-.097.187-.192.282-.286L5.635 4.53a17.549 17.549 0 0 1 1.562-1.25l3.05 3.535c.114-.082.23-.163.345-.241l-2.36-3.977a17.675 17.675 0 0 1 1.766-.944l2.329 3.924c.13-.063.262-.123.395-.182l-1.58-4.224c.62-.236 1.256-.44 1.908-.607l1.555 4.157c.142-.04.285-.077.43-.113L14.252.3c.65-.12 1.313-.205 1.987-.253Zm1.124 6.2.088-.007v.495l-.088-.487Zm-1.972.334.085.471-.168-.45.083-.02Zm-2.04.724.072-.033.156.418-.228-.385Zm-1.737.992.197.332-.253-.293.056-.039ZM9.992 9.66l.037-.037.196.227-.233-.19Zm-1.273 1.542.16.131-.18-.101.02-.03Zm-1.004 1.792.008-.016.09.05-.098-.034Zm-.653 1.89.02.007-.02-.003v-.004Zm3.12 11.012.043-.034-.035.04-.007-.006Zm1.546 1.328-.023-.016.105-.122-.082.138Zm1.715 1.03.138-.234-.095.254-.043-.02Zm1.973.743-.059-.016.12-.32-.06.336Zm1.968.355.068-.374v.38l-.068-.006Zm2.138.01-.07.004v-.388l.07.383Zm1.978-.302-.073-.4.143.383-.07.017Zm2.024-.7-.063.03-.136-.366.2.337Zm1.717-1.025-.148-.249.19.219-.042.03Zm1.517-1.41-.012.014-.07-.08.082.066ZM25.134 8.578l-.043.05.034-.058.009.008ZM23.42 7.433l.042.023-.137.23.095-.253Zm-1.847-.77-.146.388.075-.41.07.021Zm-2.12-.418.086.009-.087.48v-.489Z" fill="#FFDD61"/><path d="M36 45H0v3h36v-3ZM67.5 17.195a7.72 7.72 0 0 0-2.45-1.713 7.323 7.323 0 0 0-3.006-.625c-1.072 0-2.004.179-2.904.544-.9.365-1.684.876-2.341 1.542a7.324 7.324 0 0 0-1.55 2.354c-.376.9-.564 1.907-.564 2.994 0 1.088.204 1.997.603 2.89.4.893.94 1.656 1.628 2.289a7.728 7.728 0 0 0 2.349 1.501 7.26 7.26 0 0 0 2.803.544c1.22 0 2.332-.268 3.35-.812a7.763 7.763 0 0 0 2.576-2.2l1.675 2.363a10.272 10.272 0 0 1-3.39 2.564c-1.307.626-2.724.934-4.243.934-1.417 0-2.74-.268-3.953-.804a9.89 9.89 0 0 1-3.179-2.207 10.283 10.283 0 0 1-2.129-3.312A10.74 10.74 0 0 1 52 21.96c0-1.453.274-2.735.814-3.953a9.991 9.991 0 0 1 2.2-3.165 9.983 9.983 0 0 1 3.218-2.086A9.952 9.952 0 0 1 62.06 12c1.417 0 2.74.276 3.969.82a9.999 9.999 0 0 1 3.217 2.248l-1.753 2.127h.008ZM84.348 27.721c0 1.348-.407 2.387-1.214 3.117-.806.722-1.941 1.088-3.39 1.088h-7.961V18.485h7.962c.532 0 1.04.09 1.51.276.478.178.893.438 1.253.78.36.34.642.738.853 1.192.212.455.313.974.313 1.542 0 .447-.062.877-.187 1.274a2.329 2.329 0 0 1-.666 1.04c.486.292.861.722 1.127 1.298.267.568.4 1.185.4 1.843v-.009Zm-9.982-3.506a4.688 4.688 0 0 1 1.887-.65c.689-.088 1.417-.13 2.168-.13h1.323c.87 0 1.3-.389 1.3-1.168 0-.365-.117-.641-.36-.828-.243-.186-.556-.284-.94-.284h-5.378v3.06Zm0 5.008h5.379c.266 0 .524-.024.767-.065.242-.04.454-.122.642-.235.18-.114.336-.268.454-.471.117-.195.172-.463.172-.788 0-.503-.157-.876-.478-1.128-.32-.251-.837-.373-1.55-.373H78.43a24.2 24.2 0 0 0-1.487.04 9.381 9.381 0 0 0-1.01.114c-.282.049-.54.13-.775.236-.235.105-.493.235-.775.39v2.28h-.016ZM87.197 31.926V18.485h2.552v13.44h-2.552ZM98.885 21.163v10.77H96.31v-10.77h-4.705v-2.67h12.166v2.67h-4.886ZM106.041 21.163l-1.104-2.67h12.291v13.44h-2.724v-10.77h-3.633a57.133 57.133 0 0 1-.329 2.54 23.802 23.802 0 0 1-.54 2.598 16.412 16.412 0 0 1-.853 2.427c-.345.77-.752 1.453-1.237 2.037-.219.26-.454.47-.705.625-.25.154-.501.276-.751.349-.251.081-.486.13-.713.154-.227.024-.415.04-.563.04h-1.323V29.24h.673c.266 0 .556-.097.877-.284.313-.187.657-.584 1.025-1.193.313-.536.572-1.063.767-1.567.188-.51.353-1.03.478-1.566s.219-1.088.29-1.648c.07-.56.125-1.16.172-1.801h-2.106l.008-.017ZM131.194 18.485h2.552v13.44h-2.552v-9.707l-7.555 9.708h-2.552V18.485h2.552v9.65l7.555-9.65ZM152.261 29.077 149.255 36h-2.654l1.753-4.074H137.59V18.485h2.529v10.584h7.053V18.485h2.552v10.584h2.529l.008.008ZM158.367 29.8c-.282.502-.564.892-.853 1.176a2.96 2.96 0 0 1-.9.633c-.321.138-.65.227-1.003.26a12.29 12.29 0 0 1-1.127.049h-1.127V29.19h1.323c.235 0 .485-.08.751-.235.267-.154.588-.527.948-1.112l.524-.86c-1.104-.244-1.926-.723-2.474-1.437-.548-.714-.822-1.623-.822-2.71 0-.642.11-1.226.329-1.754a4.07 4.07 0 0 1 .924-1.372 4.26 4.26 0 0 1 1.417-.909c.54-.219 1.135-.324 1.793-.324H166v13.44h-2.63v-3.944a7.054 7.054 0 0 0-.768-.373 4.8 4.8 0 0 0-.728-.244 5.979 5.979 0 0 0-.876-.154 27.053 27.053 0 0 0-1.167-.081l-1.48 2.67.016.008Zm5.003-8.612-4.377-.025c-.281 0-.563.017-.837.04a2.201 2.201 0 0 0-.767.212 1.356 1.356 0 0 0-.564.495c-.141.22-.211.503-.211.869 0 .365.07.649.211.86.141.21.329.365.564.479.234.113.485.178.767.21.274.025.556.041.837.041.916 0 1.738.04 2.451.13.72.09 1.362.3 1.926.65v-3.961Z" fill="#131313"/></g></g><defs><clipPath id="a"><path fill="#fff" transform="translate(-84 -24)" d="M0 0h1440v7451H0z"/></clipPath><clipPath id="b"><path fill="#fff" d="M0 0h166v48H0z"/></clipPath></defs></svg>